<?xml version="1.0" encoding="UTF-8" standalone="no"?>
<!-- Created with Inkscape (http://www.inkscape.org/) -->

<svg
   width="240"
   height="48"
   viewBox="0 0 63.499998 12.700001"
   version="1.1"
   id="svg1801"
   inkscape:version="1.1 (c4e8f9e, 2021-05-24)"
   sodipodi:docname="if.svg"
   xmlns:inkscape="http://www.inkscape.org/namespaces/inkscape"
   xmlns:sodipodi="http://sodipodi.sourceforge.net/DTD/sodipodi-0.dtd"
   xmlns="http://www.w3.org/2000/svg"
   xmlns:svg="http://www.w3.org/2000/svg">
  <sodipodi:namedview
     id="namedview1803"
     pagecolor="#ffffff"
     bordercolor="#999999"
     borderopacity="1"
     inkscape:pageshadow="0"
     inkscape:pageopacity="0"
     inkscape:pagecheckerboard="0"
     inkscape:document-units="mm"
     showgrid="false"
     fit-margin-top="0"
     fit-margin-left="0"
     fit-margin-right="0"
     fit-margin-bottom="0"
     units="px"
     inkscape:zoom="2.3899884"
     inkscape:cx="175.10545"
     inkscape:cy="-10.251096"
     inkscape:window-width="2054"
     inkscape:window-height="1003"
     inkscape:window-x="265"
     inkscape:window-y="81"
     inkscape:window-maximized="0"
     inkscape:current-layer="layer1" />
  <defs
     id="defs1798">
    <clipPath
       clipPathUnits="userSpaceOnUse"
       id="clipPath1847">
      <path
         d="M 0,595.275 H 841.891 V 0 H 0 Z"
         id="path1845" />
    </clipPath>
    <clipPath
       clipPathUnits="userSpaceOnUse"
       id="clipPath2097">
      <path
         d="M 368.503,609.448 H 478.411 V 499.083 H 368.503 Z"
         id="path2095" />
    </clipPath>
    <clipPath
       clipPathUnits="userSpaceOnUse"
       id="clipPath2101">
      <path
         d="M 368.503,609.448 478.411,499.388 368.505,499.083 Z"
         id="path2099" />
    </clipPath>
    <linearGradient
       x1="0"
       y1="0"
       x2="1"
       y2="0"
       gradientUnits="userSpaceOnUse"
       gradientTransform="matrix(0,110.3652,110.3652,0,423.457,499.08298)"
       spreadMethod="pad"
       id="linearGradient2111">
      <stop
         style="stop-opacity:0;stop-color:#ffffff"
         offset="0"
         id="stop2107" />
      <stop
         style="stop-opacity:1;stop-color:#ffffff"
         offset="1"
         id="stop2109" />
    </linearGradient>
    <mask
       maskUnits="userSpaceOnUse"
       x="0"
       y="0"
       width="1"
       height="1"
       id="mask2113">
      <g
         id="g2123">
        <g
           id="g2121">
          <g
             id="g2119">
            <g
               id="g2117">
              <path
                 d="M -32768,32767 H 32767 V -32768 H -32768 Z"
                 style="fill:url(#linearGradient2111);stroke:none"
                 id="path2115" />
            </g>
          </g>
        </g>
      </g>
    </mask>
    <linearGradient
       x1="0"
       y1="0"
       x2="1"
       y2="0"
       gradientUnits="userSpaceOnUse"
       gradientTransform="matrix(0,110.3652,110.3652,0,423.457,499.08298)"
       spreadMethod="pad"
       id="linearGradient2129">
      <stop
         style="stop-opacity:1;stop-color:#ffffff"
         offset="0"
         id="stop2125" />
      <stop
         style="stop-opacity:1;stop-color:#e3e3e3"
         offset="1"
         id="stop2127" />
    </linearGradient>
    <clipPath
       clipPathUnits="userSpaceOnUse"
       id="clipPath2155">
      <path
         d="M -14.1719,609.448 H 183.492 V 411.023 H -14.1719 Z"
         id="path2153" />
    </clipPath>
    <clipPath
       clipPathUnits="userSpaceOnUse"
       id="clipPath2159">
      <path
         d="M -14.097,609.448 183.492,411.023 H -14.172 Z"
         id="path2157" />
    </clipPath>
    <linearGradient
       x1="0"
       y1="0"
       x2="1"
       y2="0"
       gradientUnits="userSpaceOnUse"
       gradientTransform="matrix(0,198.42479,198.42479,0,84.660103,411.02338)"
       spreadMethod="pad"
       id="linearGradient2169">
      <stop
         style="stop-opacity:0;stop-color:#ffffff"
         offset="0"
         id="stop2165" />
      <stop
         style="stop-opacity:1;stop-color:#ffffff"
         offset="1"
         id="stop2167" />
    </linearGradient>
    <mask
       maskUnits="userSpaceOnUse"
       x="0"
       y="0"
       width="1"
       height="1"
       id="mask2171">
      <g
         id="g2181">
        <g
           id="g2179">
          <g
             id="g2177">
            <g
               id="g2175">
              <path
                 d="M -32768,32767 H 32767 V -32768 H -32768 Z"
                 style="fill:url(#linearGradient2169);stroke:none"
                 id="path2173" />
            </g>
          </g>
        </g>
      </g>
    </mask>
    <linearGradient
       x1="0"
       y1="0"
       x2="1"
       y2="0"
       gradientUnits="userSpaceOnUse"
       gradientTransform="matrix(0,198.42479,198.42479,0,84.660103,411.02338)"
       spreadMethod="pad"
       id="linearGradient2187">
      <stop
         style="stop-opacity:1;stop-color:#ffffff"
         offset="0"
         id="stop2183" />
      <stop
         style="stop-opacity:1;stop-color:#e3e3e3"
         offset="1"
         id="stop2185" />
    </linearGradient>
    <clipPath
       clipPathUnits="userSpaceOnUse"
       id="clipPath2227">
      <path
         d="M 0,595.275 H 841.891 V 0 H 0 Z"
         id="path2225" />
    </clipPath>
    <clipPath
       clipPathUnits="userSpaceOnUse"
       id="clipPath2327">
      <path
         d="M 0,595.275 H 841.891 V 0 H 0 Z"
         id="path2325" />
    </clipPath>
    <clipPath
       clipPathUnits="userSpaceOnUse"
       id="clipPath2389">
      <path
         d="M 0,595.275 H 841.891 V 0 H 0 Z"
         id="path2387" />
    </clipPath>
    <clipPath
       clipPathUnits="userSpaceOnUse"
       id="clipPath2407">
      <path
         d="M 0,595.275 H 841.891 V 0 H 0 Z"
         id="path2405" />
    </clipPath>
  </defs>
  <g
     inkscape:label="Camada 1"
     inkscape:groupmode="layer"
     id="layer1"
     transform="translate(12.601454,-206.43295)">
    <g
       id="g3930"
       transform="matrix(1.4999939,0,0,1.4999939,6.6211929,-103.21521)">
      <g
         aria-label="INSTITUTO FEDERAL
DE EDUCAÇÃO, CIÊNCIA E TECNOLOGIA"
         transform="scale(1.000864,0.99913676)"
         id="text1839"
         style="font-weight:bold;font-size:1.81293px;font-family:'Open Sans';-inkscape-font-specification:OpenSans-Bold;fill:#2a2522;stroke-width:0.162106">
        <path
           d="m -5.4238782,212.57758 v -1.2942 h 0.2744181 v 1.2942 z"
           id="path3643" />
        <path
           d="m -3.6738562,212.57758 h -0.3487766 l -0.5629997,-0.97906 h -0.00797 q 0.00354,0.0611 0.0062,0.12305 0.00266,0.062 0.00531,0.12393 0.00266,0.0611 0.00531,0.12304 v 0.60904 h -0.2452059 v -1.2942 h 0.3461209 l 0.5621145,0.96932 h 0.0062 q -0.00177,-0.0602 -0.00443,-0.1195 -0.00266,-0.0593 -0.00531,-0.11862 -0.00177,-0.0593 -0.00354,-0.11862 v -0.61258 h 0.2469763 z"
           id="path3645" />
        <path
           d="m -2.5805056,212.21818 q 0,0.11508 -0.055769,0.20006 -0.055769,0.085 -0.1628804,0.13101 -0.1062263,0.046 -0.2584841,0.046 -0.067277,0 -0.1318978,-0.009 -0.063736,-0.009 -0.1230455,-0.0257 -0.058425,-0.0177 -0.1115377,-0.0434 v -0.25494 q 0.092063,0.0407 0.1912075,0.0735 0.099145,0.0327 0.1965187,0.0327 0.067277,0 0.1079968,-0.0177 0.041605,-0.0177 0.060195,-0.0487 0.01859,-0.031 0.01859,-0.0708 0,-0.0487 -0.032753,-0.0832 -0.032753,-0.0345 -0.090292,-0.0646 -0.056654,-0.0301 -0.1283569,-0.0646 -0.045146,-0.0212 -0.098259,-0.0513 -0.053113,-0.031 -0.100915,-0.0752 -0.047802,-0.0443 -0.078785,-0.10712 -0.030098,-0.0637 -0.030098,-0.15225 0,-0.11597 0.053113,-0.19829 0.053113,-0.0823 0.1513726,-0.1257 0.099145,-0.0443 0.233698,-0.0443 0.100915,0 0.1920927,0.0239 0.092063,0.023 0.1920927,0.0673 l -0.088522,0.21334 q -0.089407,-0.0363 -0.1602248,-0.0558 -0.070818,-0.0204 -0.1442908,-0.0204 -0.051343,0 -0.087637,0.0168 -0.036294,0.0159 -0.054884,0.046 -0.01859,0.0292 -0.01859,0.0682 0,0.046 0.026557,0.0779 0.027442,0.031 0.08144,0.0602 0.054884,0.0292 0.1363239,0.0682 0.099145,0.0469 0.1690769,0.0983 0.070818,0.0505 0.108882,0.1195 0.038064,0.0682 0.038064,0.16997 z"
           id="path3647" />
        <path
           d="m -1.8426376,212.57758 h -0.2744181 v -1.06581 H -2.468488 v -0.22839 h 0.9772826 v 0.22839 h -0.3514322 z"
           id="path3649" />
        <path
           d="m -1.2904032,212.57758 v -1.2942 h 0.2744181 v 1.2942 z"
           id="path3651" />
        <path
           d="m -0.1892472,212.57758 h -0.27441812 v -1.06581 h -0.35143223 v -0.22839 h 0.97728258 v 0.22839 H -0.1892472 Z"
           id="path3653" />
        <path
           d="m 1.4163981,211.28338 v 0.83742 q 0,0.13367 -0.05931,0.24167 -0.058425,0.10711 -0.1779292,0.16996 -0.1186194,0.0628 -0.29920425,0.0628 -0.25671372,0 -0.39126712,-0.13101 -0.1345534,-0.13101 -0.1345534,-0.34701 v -0.83388 h 0.2735329 v 0.79228 q 0,0.16022 0.0655063,0.22484 0.0655063,0.0646 0.19386312,0.0646 0.0902924,0 0.14606125,-0.031 0.056654,-0.031 0.083211,-0.0956 0.026557,-0.0646 0.026557,-0.16465 v -0.79051 z"
           id="path3655" />
        <path
           d="M 2.23645,212.57758 H 1.9620319 v -1.06581 H 1.6105997 v -0.22839 h 0.9772825 v 0.22839 H 2.23645 Z"
           id="path3657" />
        <path
           d="m 3.96337,211.92871 q 0,0.1496 -0.037179,0.27265 -0.037179,0.12216 -0.1133082,0.21068 -0.075244,0.0885 -0.1912074,0.13632 -0.1159638,0.0469 -0.2744181,0.0469 -0.1584544,0 -0.2744181,-0.0469 -0.1159638,-0.0478 -0.1920927,-0.13632 -0.075244,-0.0885 -0.1124229,-0.21157 -0.037179,-0.12304 -0.037179,-0.27353 0,-0.20095 0.065506,-0.34966 0.066391,-0.1496 0.2036005,-0.23193 0.1372091,-0.0823 0.3487766,-0.0823 0.2106823,0 0.3461209,0.0823 0.1363239,0.0823 0.2018301,0.23193 0.066391,0.1496 0.066391,0.35143 z m -0.9445295,0 q 0,0.13544 0.033638,0.2337 0.034524,0.0974 0.1071116,0.15048 0.072588,0.0522 0.1876666,0.0522 0.116849,0 0.189437,-0.0522 0.072588,-0.0531 0.1053411,-0.15048 0.033638,-0.0983 0.033638,-0.2337 0,-0.2036 -0.076129,-0.32045 -0.076129,-0.11685 -0.2505172,-0.11685 -0.1159638,0 -0.189437,0.0531 -0.072588,0.0522 -0.1071116,0.15049 -0.033638,0.0974 -0.033638,0.2337 z"
           id="path3659" />
        <path
           d="m 4.9803783,212.57758 h -0.269992 v -1.2942 h 0.7418141 v 0.22485 H 4.9803783 v 0.33373 h 0.439069 v 0.22396 h -0.439069 z"
           id="path3661" />
        <path
           d="m 6.4546651,212.57758 h -0.745355 v -1.2942 h 0.745355 v 0.22485 H 5.9837282 v 0.28416 h 0.4381837 v 0.22484 H 5.9837282 v 0.33373 h 0.4709369 z"
           id="path3663" />
        <path
           d="m 7.8001338,211.91809 q 0,0.21865 -0.084096,0.36559 -0.083211,0.14606 -0.241665,0.22042 -0.1584543,0.0735 -0.3815297,0.0735 h -0.366481 v -1.2942 H 7.132678 q 0.2036005,0 0.3532027,0.0726 0.1496021,0.0717 0.2319275,0.21334 0.082326,0.14075 0.082326,0.34878 z m -0.2850408,0.007 q 0,-0.14341 -0.042491,-0.23547 -0.041605,-0.093 -0.1239308,-0.13721 -0.08144,-0.0443 -0.2018301,-0.0443 H 7.0007803 v 0.84273 h 0.1177343 q 0.2009448,0 0.298319,-0.10711 0.098259,-0.10711 0.098259,-0.31868 z"
           id="path3665" />
        <path
           d="m 8.8150958,212.57758 h -0.745355 v -1.2942 h 0.745355 v 0.22485 H 8.3441589 v 0.28416 h 0.4381838 v 0.22484 H 8.3441589 v 0.33373 h 0.4709369 z"
           id="path3667" />
        <path
           d="m 9.463898,211.28338 q 0.1761587,0 0.2903521,0.0425 0.1150785,0.0425 0.1708474,0.12836 0.055769,0.0859 0.055769,0.21688 0,0.0885 -0.033638,0.15491 -0.033638,0.0664 -0.088522,0.11243 -0.054884,0.046 -0.1186195,0.0752 l 0.380645,0.56389 H 9.8162154 L 9.5072738,212.08097 H 9.3612125 v 0.49661 H 9.0867944 v -1.2942 z m -0.019475,0.22485 H 9.361212 v 0.34966 h 0.088522 q 0.1363238,0 0.1947483,-0.0451 0.05931,-0.046 0.05931,-0.13456 0,-0.0921 -0.063736,-0.13101 -0.062851,-0.0389 -0.1956335,-0.0389 z"
           id="path3669" />
        <path
           d="m 11.07741,212.57758 -0.09383,-0.30806 h -0.471822 l -0.09383,0.30806 h -0.295664 l 0.456774,-1.29951 h 0.335498 l 0.458544,1.29951 z m -0.159339,-0.53822 -0.09383,-0.30097 q -0.0089,-0.0301 -0.0239,-0.077 -0.01416,-0.0478 -0.02921,-0.0965 -0.01416,-0.0496 -0.02302,-0.0859 -0.0089,0.0363 -0.02479,0.0903 -0.01505,0.0531 -0.02921,0.10092 -0.01416,0.0478 -0.02036,0.0682 l -0.09295,0.30097 z"
           id="path3671" />
        <path
           d="m 11.539685,212.57758 v -1.2942 h 0.274418 v 1.06758 h 0.524935 v 0.22662 z"
           id="path3673" />
        <path
           d="m -4.3501067,213.99026 q 0,0.21865 -0.084096,0.3656 -0.083211,0.14606 -0.241665,0.22042 -0.1584544,0.0735 -0.3815297,0.0735 h -0.366481 v -1.29419 h 0.4063159 q 0.2036005,0 0.3532026,0.0726 0.1496022,0.0717 0.2319276,0.21333 0.082325,0.14075 0.082325,0.34878 z m -0.2850407,0.007 q 0,-0.1434 -0.042491,-0.23547 -0.041605,-0.0929 -0.1239307,-0.1372 -0.08144,-0.0443 -0.2018301,-0.0443 h -0.1460613 v 0.84273 h 0.1177343 q 0.2009448,0 0.298319,-0.10711 0.098259,-0.10711 0.098259,-0.31868 z"
           id="path3675" />
        <path
           d="m -3.3351437,214.64975 h -0.745355 v -1.29419 h 0.745355 v 0.22484 h -0.4709369 v 0.28416 h 0.4381838 v 0.22485 h -0.4381838 v 0.33372 h 0.4709369 z"
           id="path3677" />
        <path
           d="m -1.8431042,214.64975 h -0.745355 v -1.29419 h 0.745355 v 0.22484 h -0.4709369 v 0.28416 h 0.4381837 v 0.22485 h -0.4381837 v 0.33372 h 0.4709369 z"
           id="path3679" />
        <path
           d="m -0.49763531,213.99026 q 0,0.21865 -0.0840959,0.3656 -0.0832107,0.14606 -0.24166498,0.22042 -0.15845433,0.0735 -0.38152971,0.0735 h -0.3664809 v -1.29419 h 0.4063158 q 0.20360053,0 0.35320267,0.0726 0.14960213,0.0717 0.23192756,0.21333 0.0823254,0.14075 0.0823254,0.34878 z m -0.28504075,0.007 q 0,-0.1434 -0.0424906,-0.23547 -0.0416053,-0.0929 -0.12393076,-0.1372 -0.0814402,-0.0443 -0.20183008,-0.0443 h -0.1460613 v 0.84273 h 0.1177342 q 0.20094493,0 0.2983191,-0.10711 0.0982594,-0.10711 0.0982594,-0.31868 z"
           id="path3681" />
        <path
           d="m 0.8253838,213.35556 v 0.83742 q 0,0.13366 -0.0593097,0.24166 -0.0584245,0.10711 -0.17792916,0.16996 -0.11861944,0.0628 -0.29920427,0.0628 -0.25671372,0 -0.39126711,-0.13101 -0.1345534,-0.13101 -0.1345534,-0.347 v -0.83388 h 0.27353289 v 0.79227 q 0,0.16022 0.06550626,0.22485 0.0655063,0.0646 0.19386312,0.0646 0.0902924,0 0.14606125,-0.031 0.0566541,-0.031 0.0832107,-0.0956 0.0265566,-0.0646 0.0265566,-0.16465 v -0.7905 z"
           id="path3683" />
        <path
           d="m 1.6958928,213.56536 q -0.078785,0 -0.1398647,0.031 -0.060195,0.0301 -0.1018002,0.0876 -0.04072,0.0575 -0.061965,0.13897 -0.021245,0.0814 -0.021245,0.18325 0,0.1372 0.033638,0.23458 0.034524,0.0965 0.1062263,0.14783 0.071703,0.0505 0.1850109,0.0505 0.078785,0 0.1575692,-0.0177 0.07967,-0.0177 0.1726178,-0.0504 v 0.23015 q -0.085866,0.0354 -0.169077,0.0505 -0.083211,0.0159 -0.1867813,0.0159 -0.2000597,0 -0.3293018,-0.0823 -0.1283568,-0.0832 -0.1903222,-0.23193 -0.061965,-0.1496 -0.061965,-0.34878 0,-0.14694 0.039835,-0.2691 0.039835,-0.12216 0.116849,-0.21157 0.077014,-0.0894 0.1903222,-0.13809 0.1133082,-0.0487 0.2602546,-0.0487 0.096489,0 0.1929779,0.0248 0.097374,0.0239 0.1858962,0.0664 l -0.088522,0.22307 q -0.072588,-0.0345 -0.1460612,-0.0602 -0.073473,-0.0257 -0.1442909,-0.0257 z"
           id="path3685" />
        <path
           d="m 3.0950914,214.64975 -0.093833,-0.30806 H 2.529436 l -0.093833,0.30806 H 2.1399393 l 0.4567734,-1.2995 H 2.932211 l 0.4585438,1.2995 z m -0.1593396,-0.53821 -0.093833,-0.30098 q -0.00885,-0.0301 -0.023901,-0.077 -0.014163,-0.0478 -0.029212,-0.0965 -0.014164,-0.0496 -0.023016,-0.0859 -0.00885,0.0363 -0.024786,0.0903 -0.015049,0.0531 -0.029212,0.10092 -0.014163,0.0478 -0.02036,0.0682 l -0.092948,0.30098 z"
           id="path3687" />
        <path
           d="m 4.1070859,213.56536 q -0.078785,0 -0.1398647,0.031 -0.060195,0.0301 -0.1018003,0.0876 -0.04072,0.0575 -0.061965,0.13897 -0.021245,0.0814 -0.021245,0.18325 0,0.1372 0.033638,0.23458 0.034524,0.0965 0.1062264,0.14783 0.071703,0.0505 0.1850109,0.0505 0.078785,0 0.1575691,-0.0177 0.07967,-0.0177 0.1726179,-0.0504 v 0.23015 q -0.085866,0.0354 -0.169077,0.0505 -0.083211,0.0159 -0.1867814,0.0159 -0.2000596,0 -0.3293017,-0.0823 -0.1283568,-0.0832 -0.1903222,-0.23193 -0.061965,-0.1496 -0.061965,-0.34878 0,-0.14694 0.039835,-0.2691 0.039835,-0.12216 0.116849,-0.21157 0.077014,-0.0894 0.1903222,-0.13809 0.1133081,-0.0487 0.2602546,-0.0487 0.096489,0 0.1929779,0.0248 0.097374,0.0239 0.1858962,0.0664 l -0.088522,0.22307 q -0.072588,-0.0345 -0.1460613,-0.0602 -0.073473,-0.0257 -0.1442908,-0.0257 z m 0.169077,1.30569 q 0,0.1018 -0.05931,0.15757 -0.05931,0.0567 -0.2142232,0.0567 -0.039835,0 -0.071703,-0.005 -0.031868,-0.005 -0.057539,-0.0133 v -0.14872 q 0.025671,0.006 0.062851,0.0124 0.037179,0.006 0.063736,0.006 0.025671,0 0.044261,-0.0124 0.019475,-0.0115 0.019475,-0.0425 0,-0.0328 -0.032753,-0.0584 -0.032753,-0.0257 -0.1141933,-0.0372 l 0.069047,-0.13632 h 0.1708474 l -0.023901,0.054 q 0.036294,0.0115 0.069047,0.0336 0.032753,0.023 0.053113,0.0558 0.021245,0.0336 0.021245,0.0779 z"
           id="path3689" />
        <path
           d="M 5.5062843,214.64975 5.412451,214.34169 H 4.9406289 l -0.093833,0.30806 H 4.5511322 l 0.4567734,-1.2995 h 0.3354983 l 0.4585438,1.2995 z m -0.1593396,-0.53821 -0.093833,-0.30098 q -0.00885,-0.0301 -0.023901,-0.077 -0.014163,-0.0478 -0.029212,-0.0965 -0.014164,-0.0496 -0.023016,-0.0859 -0.00885,0.0363 -0.024786,0.0903 -0.015049,0.0531 -0.029212,0.10092 -0.014164,0.0478 -0.02036,0.0682 l -0.092948,0.30098 z m -0.5382136,-0.86309 q 0.00531,-0.0708 0.025671,-0.12216 0.02036,-0.0522 0.053113,-0.085 0.032753,-0.0336 0.073473,-0.0496 0.041605,-0.0168 0.088522,-0.0168 0.036294,0 0.070818,0.0142 0.035409,0.0133 0.069047,0.0319 0.034524,0.0186 0.067277,0.0327 0.033638,0.0133 0.065506,0.0133 0.026557,0 0.051343,-0.023 0.025671,-0.0239 0.037179,-0.0708 h 0.1318977 q -0.010623,0.13987 -0.07967,0.20715 -0.069047,0.0664 -0.16111,0.0664 -0.036294,0 -0.071703,-0.0142 -0.034523,-0.0142 -0.069047,-0.0319 -0.033638,-0.0186 -0.066391,-0.0328 -0.032753,-0.0142 -0.064621,-0.0142 -0.027442,0 -0.053113,0.0239 -0.024786,0.023 -0.036294,0.0708 z"
           id="path3691" />
        <path
           d="m 7.1432449,214.00088 q 0,0.14961 -0.037179,0.27265 -0.037179,0.12216 -0.1133082,0.21068 -0.075244,0.0885 -0.1912074,0.13633 -0.1159638,0.0469 -0.2744181,0.0469 -0.1584544,0 -0.2744182,-0.0469 -0.1159637,-0.0478 -0.1920926,-0.13633 -0.075244,-0.0885 -0.1124229,-0.21156 -0.037179,-0.12305 -0.037179,-0.27354 0,-0.20094 0.065506,-0.34966 0.066392,-0.1496 0.2036005,-0.23193 0.1372091,-0.0823 0.3487766,-0.0823 0.2106823,0 0.3461209,0.0823 0.1363239,0.0823 0.2018301,0.23193 0.066391,0.1496 0.066391,0.35143 z m -0.9445295,0 q 0,0.13544 0.033638,0.2337 0.034524,0.0974 0.1071116,0.15049 0.072588,0.0522 0.1876666,0.0522 0.116849,0 0.189437,-0.0522 0.072588,-0.0531 0.1053411,-0.15049 0.033638,-0.0983 0.033638,-0.2337 0,-0.2036 -0.076129,-0.32045 -0.076129,-0.11684 -0.2505172,-0.11684 -0.1159638,0 -0.189437,0.0531 -0.072588,0.0522 -0.1071116,0.15049 -0.033638,0.0974 -0.033638,0.23369 z"
           id="path3693" />
        <path
           d="m 7.6454322,214.43907 0.013278,0.0204 q -0.015934,0.0637 -0.041605,0.13721 -0.024786,0.0735 -0.054884,0.14694 -0.029212,0.0735 -0.05931,0.13987 H 7.3081635 q 0.017704,-0.0717 0.034524,-0.15049 0.016819,-0.0788 0.030983,-0.15491 0.015049,-0.0761 0.023901,-0.13898 z"
           id="path3695" />
        <path
           d="m 8.9675448,213.56536 q -0.078785,0 -0.1398647,0.031 -0.060195,0.0301 -0.1018003,0.0876 -0.04072,0.0575 -0.061965,0.13897 -0.021245,0.0814 -0.021245,0.18325 0,0.1372 0.033638,0.23458 0.034524,0.0965 0.1062263,0.14783 0.071703,0.0505 0.185011,0.0505 0.078784,0 0.1575691,-0.0177 0.07967,-0.0177 0.1726178,-0.0504 v 0.23015 q -0.085866,0.0354 -0.1690769,0.0505 -0.083211,0.0159 -0.1867814,0.0159 -0.2000597,0 -0.3293017,-0.0823 -0.1283569,-0.0832 -0.1903223,-0.23193 -0.061965,-0.1496 -0.061965,-0.34878 0,-0.14694 0.039835,-0.2691 0.039835,-0.12216 0.116849,-0.21157 0.077014,-0.0894 0.1903223,-0.13809 0.1133081,-0.0487 0.2602546,-0.0487 0.096489,0 0.1929779,0.0248 0.097374,0.0239 0.1858961,0.0664 l -0.088522,0.22307 q -0.072588,-0.0345 -0.1460612,-0.0602 -0.073473,-0.0257 -0.1442908,-0.0257 z"
           id="path3697" />
        <path
           d="m 9.574472,214.64975 v -1.29419 h 0.2744181 v 1.29419 z"
           id="path3699" />
        <path
           d="m 10.921718,214.64975 h -0.745355 v -1.29419 h 0.745355 v 0.22484 h -0.470937 v 0.28416 h 0.438183 v 0.22485 h -0.438183 v 0.33372 h 0.470937 z m -0.203601,-1.69343 q 0.02567,0.0407 0.06639,0.0903 0.04161,0.0496 0.08498,0.0965 0.04337,0.0469 0.07524,0.0797 v 0.0239 h -0.178814 q -0.0478,-0.0283 -0.104456,-0.0673 -0.05577,-0.0398 -0.102686,-0.0885 -0.0478,0.0487 -0.1018,0.0876 -0.054,0.0381 -0.100915,0.0682 h -0.179699 v -0.0239 q 0.03364,-0.0336 0.07701,-0.0797 0.04337,-0.0469 0.0841,-0.0965 0.04072,-0.0496 0.06551,-0.0903 z"
           id="path3701" />
        <path
           d="M 12.341546,214.64975 H 11.99277 l -0.563,-0.97905 h -0.008 q 0.0035,0.0611 0.0062,0.12304 0.0027,0.062 0.0053,0.12393 0.0027,0.0611 0.0053,0.12305 v 0.60903 h -0.245206 v -1.29419 h 0.346121 l 0.562115,0.96931 h 0.0062 q -0.0018,-0.0602 -0.0044,-0.1195 -0.0027,-0.0593 -0.0053,-0.11862 -0.0018,-0.0593 -0.0035,-0.11862 v -0.61257 h 0.246976 z"
           id="path3703" />
        <path
           d="m 13.220674,213.56536 q -0.07878,0 -0.139865,0.031 -0.0602,0.0301 -0.1018,0.0876 -0.04072,0.0575 -0.06197,0.13897 -0.02125,0.0814 -0.02125,0.18325 0,0.1372 0.03364,0.23458 0.03452,0.0965 0.106227,0.14783 0.0717,0.0505 0.185011,0.0505 0.07878,0 0.157569,-0.0177 0.07967,-0.0177 0.172618,-0.0504 v 0.23015 q -0.08587,0.0354 -0.169077,0.0505 -0.08321,0.0159 -0.186782,0.0159 -0.200059,0 -0.329301,-0.0823 -0.128357,-0.0832 -0.190323,-0.23193 -0.06197,-0.1496 -0.06197,-0.34878 0,-0.14694 0.03984,-0.2691 0.03984,-0.12216 0.116849,-0.21157 0.07701,-0.0894 0.190322,-0.13809 0.113308,-0.0487 0.260255,-0.0487 0.09649,0 0.192978,0.0248 0.09737,0.0239 0.185896,0.0664 l -0.08852,0.22307 q -0.07259,-0.0345 -0.146061,-0.0602 -0.07347,-0.0257 -0.144291,-0.0257 z"
           id="path3705" />
        <path
           d="m 13.8276,214.64975 v -1.29419 h 0.274418 v 1.29419 z"
           id="path3707" />
        <path
           d="m 15.221763,214.64975 -0.09383,-0.30806 h -0.471822 l -0.09383,0.30806 h -0.295663 l 0.456773,-1.2995 h 0.335499 l 0.458544,1.2995 z m -0.159339,-0.53821 -0.09383,-0.30098 q -0.0089,-0.0301 -0.0239,-0.077 -0.01416,-0.0478 -0.02921,-0.0965 -0.01416,-0.0496 -0.02302,-0.0859 -0.0089,0.0363 -0.02479,0.0903 -0.01505,0.0531 -0.02921,0.10092 -0.01416,0.0478 -0.02036,0.0682 l -0.09295,0.30098 z"
           id="path3709" />
        <path
           d="m 16.904381,214.64975 h -0.745355 v -1.29419 h 0.745355 v 0.22484 h -0.470937 v 0.28416 h 0.438184 v 0.22485 h -0.438184 v 0.33372 h 0.470937 z"
           id="path3711" />
        <path
           d="M 18.150328,214.64975 H 17.87591 v -1.0658 h -0.351432 v -0.22839 h 0.977283 v 0.22839 h -0.351433 z"
           id="path3713" />
        <path
           d="m 19.447916,214.64975 h -0.745355 v -1.29419 h 0.745355 v 0.22484 h -0.470937 v 0.28416 h 0.438184 v 0.22485 h -0.438184 v 0.33372 h 0.470937 z"
           id="path3715" />
        <path
           d="m 20.269336,213.56536 q -0.07878,0 -0.139865,0.031 -0.0602,0.0301 -0.1018,0.0876 -0.04072,0.0575 -0.06197,0.13897 -0.02125,0.0814 -0.02125,0.18325 0,0.1372 0.03364,0.23458 0.03452,0.0965 0.106226,0.14783 0.0717,0.0505 0.185011,0.0505 0.07878,0 0.157569,-0.0177 0.07967,-0.0177 0.172618,-0.0504 v 0.23015 q -0.08587,0.0354 -0.169077,0.0505 -0.08321,0.0159 -0.186781,0.0159 -0.20006,0 -0.329302,-0.0823 -0.128357,-0.0832 -0.190322,-0.23193 -0.06197,-0.1496 -0.06197,-0.34878 0,-0.14694 0.03984,-0.2691 0.03984,-0.12216 0.116849,-0.21157 0.07701,-0.0894 0.190322,-0.13809 0.113308,-0.0487 0.260255,-0.0487 0.09649,0 0.192978,0.0248 0.09737,0.0239 0.185896,0.0664 l -0.08852,0.22307 q -0.07259,-0.0345 -0.146061,-0.0602 -0.07347,-0.0257 -0.144291,-0.0257 z"
           id="path3717" />
        <path
           d="m 22.024391,214.64975 h -0.348776 l -0.563,-0.97905 h -0.008 q 0.0035,0.0611 0.0062,0.12304 0.0027,0.062 0.0053,0.12393 0.0027,0.0611 0.0053,0.12305 v 0.60903 h -0.245206 v -1.29419 h 0.346121 l 0.562115,0.96931 h 0.0062 q -0.0018,-0.0602 -0.0044,-0.1195 -0.0027,-0.0593 -0.0053,-0.11862 -0.0018,-0.0593 -0.0035,-0.11862 v -0.61257 h 0.246976 z"
           id="path3719" />
        <path
           d="m 23.528483,214.00088 q 0,0.14961 -0.03718,0.27265 -0.03718,0.12216 -0.113308,0.21068 -0.07524,0.0885 -0.191208,0.13633 -0.115964,0.0469 -0.274418,0.0469 -0.158454,0 -0.274418,-0.0469 -0.115964,-0.0478 -0.192093,-0.13633 -0.07524,-0.0885 -0.112423,-0.21156 -0.03718,-0.12305 -0.03718,-0.27354 0,-0.20094 0.06551,-0.34966 0.06639,-0.1496 0.203601,-0.23193 0.137209,-0.0823 0.348777,-0.0823 0.210682,0 0.34612,0.0823 0.136324,0.0823 0.201831,0.23193 0.06639,0.1496 0.06639,0.35143 z m -0.944529,0 q 0,0.13544 0.03364,0.2337 0.03452,0.0974 0.107112,0.15049 0.07259,0.0522 0.187666,0.0522 0.116849,0 0.189437,-0.0522 0.07259,-0.0531 0.105341,-0.15049 0.03364,-0.0983 0.03364,-0.2337 0,-0.2036 -0.07613,-0.32045 -0.07613,-0.11684 -0.250517,-0.11684 -0.115964,0 -0.189437,0.0531 -0.07259,0.0522 -0.107112,0.15049 -0.03364,0.0974 -0.03364,0.23369 z"
           id="path3721" />
        <path
           d="m 23.800515,214.64975 v -1.29419 h 0.274418 v 1.06757 h 0.524935 v 0.22662 z"
           id="path3723" />
        <path
           d="m 26.003129,214.00088 q 0,0.14961 -0.03718,0.27265 -0.03718,0.12216 -0.113308,0.21068 -0.07524,0.0885 -0.191207,0.13633 -0.115964,0.0469 -0.274418,0.0469 -0.158455,0 -0.274418,-0.0469 -0.115964,-0.0478 -0.192093,-0.13633 -0.07524,-0.0885 -0.112423,-0.21156 -0.03718,-0.12305 -0.03718,-0.27354 0,-0.20094 0.06551,-0.34966 0.06639,-0.1496 0.203601,-0.23193 0.137209,-0.0823 0.348776,-0.0823 0.210682,0 0.346121,0.0823 0.136324,0.0823 0.20183,0.23193 0.06639,0.1496 0.06639,0.35143 z m -0.94453,0 q 0,0.13544 0.03364,0.2337 0.03452,0.0974 0.107111,0.15049 0.07259,0.0522 0.187667,0.0522 0.116849,0 0.189437,-0.0522 0.07259,-0.0531 0.105341,-0.15049 0.03364,-0.0983 0.03364,-0.2337 0,-0.2036 -0.07613,-0.32045 -0.07613,-0.11684 -0.250517,-0.11684 -0.115964,0 -0.189437,0.0531 -0.07259,0.0522 -0.107111,0.15049 -0.03364,0.0974 -0.03364,0.23369 z"
           id="path3725" />
        <path
           d="m 26.766455,213.92298 h 0.513428 v 0.671 q -0.1018,0.0336 -0.211568,0.054 -0.109767,0.0195 -0.248746,0.0195 -0.192978,0 -0.327532,-0.0761 -0.134553,-0.0761 -0.204486,-0.22485 -0.06993,-0.14872 -0.06993,-0.3656 0,-0.2036 0.0779,-0.35231 0.07878,-0.14872 0.229272,-0.23016 0.151373,-0.0814 0.369137,-0.0814 0.102685,0 0.202715,0.0221 0.10003,0.0221 0.18147,0.0575 l -0.09118,0.21953 q -0.05931,-0.0301 -0.135439,-0.0504 -0.07613,-0.0204 -0.159339,-0.0204 -0.119505,0 -0.208027,0.0549 -0.08764,0.0549 -0.136324,0.15403 -0.0478,0.0983 -0.0478,0.23193 0,0.12658 0.03452,0.22484 0.03452,0.0974 0.108882,0.15314 0.07436,0.0549 0.193863,0.0549 0.05842,0 0.09826,-0.005 0.04072,-0.006 0.07613,-0.0124 v -0.26999 h -0.245206 z"
           id="path3727" />
        <path
           d="m 27.589533,214.64975 v -1.29419 h 0.274418 v 1.29419 z"
           id="path3729" />
        <path
           d="m 28.983696,214.64975 -0.09383,-0.30806 H 28.41804 l -0.09383,0.30806 h -0.295664 l 0.456774,-1.2995 h 0.335498 l 0.458544,1.2995 z m -0.15934,-0.53821 -0.09383,-0.30098 q -0.0089,-0.0301 -0.0239,-0.077 -0.01416,-0.0478 -0.02921,-0.0965 -0.01416,-0.0496 -0.02302,-0.0859 -0.0089,0.0363 -0.02479,0.0903 -0.01505,0.0531 -0.02921,0.10092 -0.01416,0.0478 -0.02036,0.0682 l -0.09295,0.30098 z"
           id="path3731" />
      </g>
      <g
         id="g1849"
         transform="matrix(0.16224595,0,0,-0.16224595,-8.7072917,208.08184)">
        <path
           d="m 0,0 c 0,-0.574 -0.465,-1.039 -1.039,-1.039 h -8.592 c -0.573,0 -1.039,0.465 -1.039,1.039 v 8.59 c 0,0.575 0.466,1.039 1.039,1.039 h 8.592 C -0.465,9.629 0,9.165 0,8.59 Z"
           style="fill:#359830;fill-opacity:1;fill-rule:nonzero;stroke:none"
           id="path1851" />
      </g>
      <g
         id="g1853"
         transform="matrix(0.16224595,0,0,-0.16224595,-6.6304299,208.08184)">
        <path
           d="m 0,0 c 0,-0.574 -0.463,-1.039 -1.037,-1.039 h -8.592 c -0.574,0 -1.039,0.465 -1.039,1.039 v 8.59 c 0,0.575 0.465,1.039 1.039,1.039 h 8.592 C -0.463,9.629 0,9.165 0,8.59 Z"
           style="fill:#359830;fill-opacity:1;fill-rule:nonzero;stroke:none"
           id="path1855" />
      </g>
      <g
         id="g1857"
         transform="matrix(0.16224595,0,0,-0.16224595,-6.6304299,212.23606)">
        <path
           d="m 0,0 c 0,-0.574 -0.463,-1.037 -1.037,-1.037 h -8.592 c -0.574,0 -1.039,0.463 -1.039,1.037 v 8.591 c 0,0.575 0.465,1.04 1.039,1.04 h 8.592 C -0.463,9.631 0,9.166 0,8.591 Z"
           style="fill:#359830;fill-opacity:1;fill-rule:nonzero;stroke:none"
           id="path1859" />
      </g>
      <g
         id="g1861"
         transform="matrix(0.16224595,0,0,-0.16224595,-10.78417,210.15761)">
        <path
           d="m 0,0 c 0,-0.575 -0.465,-1.038 -1.039,-1.038 h -8.592 c -0.573,0 -1.039,0.463 -1.039,1.038 v 8.592 c 0,0.573 0.466,1.039 1.039,1.039 h 8.592 C -0.465,9.631 0,9.165 0,8.592 Z"
           style="fill:#359830;fill-opacity:1;fill-rule:nonzero;stroke:none"
           id="path1863" />
      </g>
      <g
         id="g1865"
         transform="matrix(0.16224595,0,0,-0.16224595,-8.7072917,210.15761)">
        <path
           d="m 0,0 c 0,-0.575 -0.465,-1.038 -1.039,-1.038 h -8.592 c -0.573,0 -1.039,0.463 -1.039,1.038 v 8.592 c 0,0.573 0.466,1.039 1.039,1.039 h 8.592 C -0.465,9.631 0,9.165 0,8.592 Z"
           style="fill:#359830;fill-opacity:1;fill-rule:nonzero;stroke:none"
           id="path1867" />
      </g>
      <g
         id="g1869"
         transform="matrix(0.16224595,0,0,-0.16224595,-10.78417,212.23606)">
        <path
           d="m 0,0 c 0,-0.574 -0.465,-1.037 -1.039,-1.037 h -8.592 c -0.573,0 -1.039,0.463 -1.039,1.037 v 8.591 c 0,0.575 0.466,1.04 1.039,1.04 h 8.592 C -0.465,9.631 0,9.166 0,8.591 Z"
           style="fill:#359830;fill-opacity:1;fill-rule:nonzero;stroke:none"
           id="path1871" />
      </g>
      <g
         id="g1873"
         transform="matrix(0.16224595,0,0,-0.16224595,-8.7072917,212.23606)">
        <path
           d="m 0,0 c 0,-0.574 -0.465,-1.037 -1.039,-1.037 h -8.592 c -0.573,0 -1.039,0.463 -1.039,1.037 v 8.591 c 0,0.575 0.466,1.04 1.039,1.04 h 8.592 C -0.465,9.631 0,9.166 0,8.591 Z"
           style="fill:#359830;fill-opacity:1;fill-rule:nonzero;stroke:none"
           id="path1875" />
      </g>
      <g
         id="g1877"
         transform="matrix(0.16224595,0,0,-0.16224595,-10.78417,214.31516)">
        <path
           d="m 0,0 c 0,-0.573 -0.465,-1.038 -1.039,-1.038 h -8.592 c -0.573,0 -1.039,0.465 -1.039,1.038 v 8.592 c 0,0.573 0.466,1.038 1.039,1.038 h 8.592 C -0.465,9.63 0,9.165 0,8.592 Z"
           style="fill:#359830;fill-opacity:1;fill-rule:nonzero;stroke:none"
           id="path1879" />
      </g>
      <g
         id="g1881"
         transform="matrix(0.16224595,0,0,-0.16224595,-8.7072917,214.31516)">
        <path
           d="m 0,0 c 0,-0.573 -0.465,-1.038 -1.039,-1.038 h -8.592 c -0.573,0 -1.039,0.465 -1.039,1.038 v 8.592 c 0,0.573 0.466,1.038 1.039,1.038 h 8.592 C -0.465,9.63 0,9.165 0,8.592 Z"
           style="fill:#359830;fill-opacity:1;fill-rule:nonzero;stroke:none"
           id="path1883" />
      </g>
      <g
         id="g1885"
         transform="matrix(0.16224595,0,0,-0.16224595,-10.69766,207.38517)">
        <path
           d="m 0,0 c 0,-3.24 -2.627,-5.867 -5.867,-5.867 -3.242,0 -5.867,2.627 -5.867,5.867 0,3.24 2.625,5.869 5.867,5.869 C -2.627,5.869 0,3.24 0,0"
           style="fill:#c90c0f;fill-opacity:1;fill-rule:nonzero;stroke:none"
           id="path1887" />
      </g>
    </g>
  </g>
</svg>
