<?xml version="1.0" encoding="UTF-8" standalone="no"?>
<!-- Generator: Adobe Illustrator 19.0.0, SVG Export Plug-In . SVG Version: 6.00 Build 0)  -->

<svg
   version="1.2"
   id="Layer_1"
   x="0px"
   y="0px"
   viewBox="-1077 923 94 24"
   xml:space="preserve"
   sodipodi:docname="labclima-logo.svg"
   width="94"
   height="24"
   inkscape:version="1.1 (c4e8f9e, 2021-05-24)"
   xmlns:inkscape="http://www.inkscape.org/namespaces/inkscape"
   xmlns:sodipodi="http://sodipodi.sourceforge.net/DTD/sodipodi-0.dtd"
   xmlns:xlink="http://www.w3.org/1999/xlink"
   xmlns="http://www.w3.org/2000/svg"
   xmlns:svg="http://www.w3.org/2000/svg"><defs
   id="defs67934"><linearGradient
     inkscape:collect="always"
     id="linearGradient25040"><stop
       style="stop-color:#ff9200;stop-opacity:1;"
       offset="0"
       id="stop25036" /><stop
       style="stop-color:#ffca00;stop-opacity:1"
       offset="1"
       id="stop25038" /></linearGradient><linearGradient
     inkscape:collect="always"
     id="linearGradient988"><stop
       style="stop-color:#89c1e8;stop-opacity:1"
       offset="0"
       id="stop984" /><stop
       style="stop-color:#1f7afa;stop-opacity:1"
       offset="1"
       id="stop986" /></linearGradient><linearGradient
     inkscape:collect="always"
     xlink:href="#linearGradient988"
     id="linearGradient17157"
     x1="-1384.4543"
     y1="912.39594"
     x2="-1145.201"
     y2="912.39594"
     gradientUnits="userSpaceOnUse"
     gradientTransform="matrix(0.11178671,0,0,0.11178671,-922.2365,833.00608)" /><linearGradient
     inkscape:collect="always"
     xlink:href="#linearGradient25040"
     id="linearGradient25042"
     x1="-1070.0902"
     y1="931.68347"
     x2="-1050.2548"
     y2="931.68347"
     gradientUnits="userSpaceOnUse" /></defs><sodipodi:namedview
   id="namedview67932"
   pagecolor="#ffffff"
   bordercolor="#999999"
   borderopacity="1"
   inkscape:pageshadow="0"
   inkscape:pageopacity="0"
   inkscape:pagecheckerboard="0"
   showgrid="false"
   width="90px"
   inkscape:zoom="6.3326238"
   inkscape:cx="39.793932"
   inkscape:cy="9.0799646"
   inkscape:window-width="1901"
   inkscape:window-height="847"
   inkscape:window-x="229"
   inkscape:window-y="256"
   inkscape:window-maximized="0"
   inkscape:current-layer="Layer_1" />

<g
   id="g17377"
   style="fill:url(#linearGradient25042);fill-opacity:1"><path
     style="fill:url(#linearGradient25042);fill-opacity:1;stroke-width:0.0178859"
     d="m -1060.8075,924.9226 v -1.92273 h 0.635 0.6349 v 1.92273 1.92273 h -0.6349 -0.635 z"
     id="path17350" /><path
     style="fill:url(#linearGradient25042);fill-opacity:1;stroke-width:0.0178859"
     d="m -1055.862,928.61599 -0.447,-0.44719 1.3592,-1.35924 1.3591,-1.35924 0.4518,0.45149 0.4517,0.45149 -1.3548,1.35494 c -0.7452,0.74522 -1.359,1.35494 -1.364,1.35494 -0.01,0 -0.2103,-0.20124 -0.456,-0.44719 z"
     id="path17348" /><path
     style="fill:url(#linearGradient25042);fill-opacity:1;stroke-width:0.0178859"
     d="m -1066.2805,927.73068 -1.3503,-1.35038 0.4516,-0.45159 0.4516,-0.45159 1.3547,1.35477 1.3548,1.35476 -0.447,0.44721 c -0.2458,0.24596 -0.451,0.44721 -0.456,0.44721 0,0 -0.6168,-0.60768 -1.3594,-1.35039 z"
     id="path17346" /><path
     style="fill:url(#linearGradient25042);fill-opacity:1;stroke-width:0.0178859"
     d="m -1054.1002,932.91759 v -0.63495 h 1.9227 1.9227 v 0.63495 0.63495 h -1.9227 -1.9227 z"
     id="path17344" /><path
     style="fill:url(#linearGradient25042);fill-opacity:1;stroke-width:0.0178859"
     d="m -1070.0902,932.91759 v -0.63495 h 1.9227 1.9227 v 0.63495 0.63495 h -1.9227 -1.9227 z"
     id="path17342" /><path
     style="fill:url(#linearGradient25042);fill-opacity:1;stroke-width:0.0178859"
     d="m -1058.8544,937.40223 c -0.1,-0.11919 -0.4471,-0.42923 -0.6547,-0.58446 -0.7256,-0.54249 -1.5778,-0.88043 -2.4877,-0.98649 -0.2513,-0.0293 -0.7375,-0.0372 -1.0108,-0.0165 l -0.1701,0.0129 -0.1915,-0.22359 c -0.3197,-0.37312 -0.714,-0.72325 -1.1421,-1.0141 l -0.2072,-0.14078 -0.039,-0.13085 c -0.058,-0.19656 -0.1241,-0.49945 -0.1587,-0.73002 -0.043,-0.28284 -0.042,-1.05094 0,-1.32902 0.1176,-0.76687 0.3698,-1.43038 0.7727,-2.03353 1.3118,-1.96355 3.8697,-2.67377 5.9933,-1.66402 1.2068,0.57385 2.1162,1.61996 2.528,2.90808 0.2473,0.77352 0.2924,1.65619 0.1256,2.45673 -0.3291,1.57917 -1.4806,2.91037 -3.0095,3.47905 -0.2687,0.1 -0.2622,0.10002 -0.3488,-0.003 z"
     id="path17340" /><path
     style="fill:url(#linearGradient25042);fill-opacity:1;stroke-width:0.0178859"
     d="m -1054.9588,939.01667 -1.3503,-1.35038 0.4516,-0.45159 0.4516,-0.45159 1.3548,1.35476 1.3548,1.35477 -0.447,0.44721 c -0.2458,0.24596 -0.451,0.4472 -0.4561,0.4472 0,0 -0.6167,-0.60767 -1.3594,-1.35038 z"
     id="path17338" /></g><path
   style="fill:url(#linearGradient17157);fill-opacity:1;stroke-width:0.0178859"
   d="m -1067.8746,946.98311 c -6.2165,-0.015 -5.7747,-0.006 -6.2659,-0.13214 -1.4918,-0.38401 -2.5885,-1.60571 -2.828,-3.15025 -0.042,-0.26939 -0.042,-0.84022 0,-1.10688 0.2033,-1.30861 0.9527,-2.33507 2.1082,-2.88775 0.3847,-0.18398 0.7007,-0.28137 1.1071,-0.34116 0.2909,-0.0428 0.7403,-0.0464 1.0255,-0.008 0.1083,0.0145 0.198,0.0264 0.1994,0.0265 0,0 0.01,-0.0582 0.014,-0.12952 0.041,-0.45767 0.083,-0.69976 0.1809,-1.04185 0.2331,-0.81353 0.6323,-1.47916 1.2444,-2.07503 0.6867,-0.66852 1.5014,-1.07335 2.5034,-1.24395 0.2837,-0.0483 0.8684,-0.0662 1.1715,-0.0358 0.7316,0.0733 1.4631,0.33063 2.0729,0.72937 0.5953,0.38921 1.1201,0.9386 1.4611,1.52931 0.055,0.0961 0.1004,0.15549 0.1139,0.15032 0.075,-0.0288 0.495,-0.12192 0.6609,-0.14658 0.2714,-0.0403 0.777,-0.0408 1.052,-8e-4 0.6917,0.10034 1.3194,0.37642 1.9015,0.83634 0.6973,0.55089 1.174,1.34548 1.3482,2.2472 0.02,0.10551 0.046,0.31887 0.058,0.47414 0.018,0.24195 0.025,0.28078 0.048,0.2717 0.061,-0.0235 0.5747,-0.0303 0.7793,-0.0103 1.3558,0.13244 2.429,1.05563 2.7259,2.34486 0.089,0.3879 0.094,0.89879 0.011,1.29797 -0.1898,0.91968 -0.7743,1.68516 -1.6053,2.10217 -0.3212,0.16118 -0.5994,0.24654 -0.9561,0.2933 -0.2321,0.0304 -0.4659,0.0306 -10.1317,0.007 z"
   id="path17131" /><g
   aria-label="LabClima"
   id="text40985"
   style="font-size:16px;line-height:1.25;font-family:'American Typewriter';-inkscape-font-specification:'American Typewriter';fill:#3185f7"><path
     d="m -1045.391,940.76002 h 6.784 v -1.744 h -4.512 v -9.232 h -2.272 z"
     style="font-weight:800;font-family:'.Apple SD Gothic NeoI';-inkscape-font-specification:'.Apple SD Gothic NeoI Ultra-Bold';fill:#333333"
     id="path79791" /><path
     d="m -1035.1112,940.90402 c 1.04,0 1.744,-0.336 2.112,-0.816 h 0.096 l 0.16,0.672 h 1.712 v -5.936 c 0,-1.792 -1.136,-2.496 -3.088,-2.496 -1.152,0 -2.08,0.16 -2.896,0.448 v 1.472 c 0.544,-0.16 1.28,-0.256 2.096,-0.256 1.36,0 1.808,0.24 1.808,1.264 v 0.56 l -1.824,0.224 c -1.68,0.24 -2.768,0.944 -2.768,2.512 0,1.6 1.072,2.352 2.592,2.352 z m 0.656,-1.424 c -0.688,0 -1.184,-0.32 -1.184,-1.088 0,-0.768 0.384,-1.056 1.168,-1.136 l 1.36,-0.144 v 1.92 c -0.256,0.256 -0.816,0.448 -1.344,0.448 z"
     style="font-weight:800;font-family:'.Apple SD Gothic NeoI';-inkscape-font-specification:'.Apple SD Gothic NeoI Ultra-Bold';fill:#333333"
     id="path79793" /><path
     d="m -1025.864,940.93602 c 2.848,0 4.368,-1.424 4.368,-4.432 v -0.208 c 0,-3.04 -1.568,-3.984 -3.12,-3.984 -1.088,0 -1.824,0.304 -2.4,0.704 h -0.096 v -3.952 h -2.096 v 11.36 c 0.816,0.304 2.144,0.512 3.344,0.512 z m 0.112,-1.568 c -0.64,0 -1.072,-0.112 -1.36,-0.224 v -4.784 c 0.32,-0.128 0.896,-0.368 1.52,-0.368 1.328,0 1.936,0.56 1.936,2.512 v 0.288 c 0,2.032 -0.976,2.576 -2.096,2.576 z"
     style="font-weight:800;font-family:'.Apple SD Gothic NeoI';-inkscape-font-specification:'.Apple SD Gothic NeoI Ultra-Bold';fill:#333333"
     id="path79795" /><path
     d="m -1015.3477,940.93602 c 1.344,0 2.336,-0.256 3.056,-0.656 v -1.712 c -0.608,0.272 -1.36,0.56 -2.576,0.56 -2.224,0 -3.088,-1.36 -3.088,-3.728 v -0.544 c 0,-2.448 1.2,-3.472 3.072,-3.472 1.008,0 1.728,0.224 2.512,0.48 v -1.712 c -0.656,-0.352 -1.536,-0.544 -2.8,-0.544 -2.88,0 -5.216,1.488 -5.216,5.456 v 0.4 c 0,3.696 1.936,5.472 5.04,5.472 z"
     style="font-weight:800;font-family:'.Apple SD Gothic NeoI';-inkscape-font-specification:'.Apple SD Gothic NeoI Ultra-Bold';fill:#333333"
     id="path79797" /><path
     d="m -1010.785,940.76002 h 2.112 v -11.696 h -2.112 z"
     style="font-weight:800;font-family:'.Apple SD Gothic NeoI';-inkscape-font-specification:'.Apple SD Gothic NeoI Ultra-Bold';fill:#333333"
     id="path79799" /><path
     d="m -1006.7225,940.76002 h 2.112 v -8.288 h -2.112 z m -0.016,-9.536 h 2.144 v -1.792 h -2.144 z"
     style="font-weight:800;font-family:'.Apple SD Gothic NeoI';-inkscape-font-specification:'.Apple SD Gothic NeoI Ultra-Bold';fill:#333333"
     id="path79801" /><path
     d="m -1002.708,940.76002 h 2.096 v -6.336 c 0.464,-0.176 1.00801,-0.416 1.53601,-0.416 0.88,0 1.168,0.336 1.168,1.088 v 5.664 h 2.112 v -6 c 0,-0.112 0,-0.208 -0.016,-0.32 0.544,-0.224 1.04,-0.432 1.552,-0.432 0.864,0 1.168,0.336 1.168,1.088 v 5.664 h 2.096 v -6.192 c 0,-1.616 -0.848,-2.256 -2.288,-2.256 -0.96,0 -1.888,0.352 -2.72,0.928 h -0.08 c -0.4,-0.64 -1.072,-0.928 -2,-0.928 -0.992,0 -1.84,0.4 -2.52801,0.928 h -0.08 v -0.768 h -2.016 z"
     style="font-weight:800;font-family:'.Apple SD Gothic NeoI';-inkscape-font-specification:'.Apple SD Gothic NeoI Ultra-Bold';fill:#333333"
     id="path79803" /><path
     d="m -987.07999,940.90402 c 1.04,0 1.744,-0.336 2.112,-0.816 h 0.096 l 0.16,0.672 h 1.712 v -5.936 c 0,-1.792 -1.136,-2.496 -3.088,-2.496 -1.152,0 -2.08,0.16 -2.896,0.448 v 1.472 c 0.544,-0.16 1.28,-0.256 2.096,-0.256 1.36,0 1.808,0.24 1.808,1.264 v 0.56 l -1.824,0.224 c -1.68,0.24 -2.768,0.944 -2.768,2.512 0,1.6 1.072,2.352 2.592,2.352 z m 0.656,-1.424 c -0.688,0 -1.184,-0.32 -1.184,-1.088 0,-0.768 0.384,-1.056 1.168,-1.136 l 1.36,-0.144 v 1.92 c -0.256,0.256 -0.816,0.448 -1.344,0.448 z"
     style="font-weight:800;font-family:'.Apple SD Gothic NeoI';-inkscape-font-specification:'.Apple SD Gothic NeoI Ultra-Bold';fill:#333333"
     id="path79805" /></g></svg>
