<?xml version="1.0" encoding="UTF-8" standalone="no"?>
<!-- Generator: Adobe Illustrator 19.0.0, SVG Export Plug-In . SVG Version: 6.00 Build 0)  -->

<svg
   version="1.2"
   id="Layer_1"
   x="0px"
   y="0px"
   viewBox="-1077 923 24 24"
   xml:space="preserve"
   sodipodi:docname="labclima.svg"
   width="24"
   height="24"
   inkscape:version="1.1 (c4e8f9e, 2021-05-24)"
   xmlns:inkscape="http://www.inkscape.org/namespaces/inkscape"
   xmlns:sodipodi="http://sodipodi.sourceforge.net/DTD/sodipodi-0.dtd"
   xmlns:xlink="http://www.w3.org/1999/xlink"
   xmlns="http://www.w3.org/2000/svg"
   xmlns:svg="http://www.w3.org/2000/svg"><defs
   id="defs67934"><linearGradient
     inkscape:collect="always"
     id="linearGradient988"><stop
       style="stop-color:#54b3f1;stop-opacity:1"
       offset="0"
       id="stop984" /><stop
       style="stop-color:#1f7afa;stop-opacity:1"
       offset="1"
       id="stop986" /></linearGradient><linearGradient
     inkscape:collect="always"
     xlink:href="#linearGradient988"
     id="linearGradient990"
     x1="-1065.7908"
     y1="933.41833"
     x2="-1053.295"
     y2="946.78833"
     gradientUnits="userSpaceOnUse" /></defs><sodipodi:namedview
   id="namedview67932"
   pagecolor="#ffffff"
   bordercolor="#999999"
   borderopacity="1"
   inkscape:pageshadow="0"
   inkscape:pageopacity="0"
   inkscape:pagecheckerboard="0"
   showgrid="false"
   width="24px"
   inkscape:zoom="11.980658"
   inkscape:cx="7.8042457"
   inkscape:cy="14.147804"
   inkscape:window-width="1223"
   inkscape:window-height="847"
   inkscape:window-x="907"
   inkscape:window-y="257"
   inkscape:window-maximized="0"
   inkscape:current-layer="Layer_1" />
<path
   d="m -1053.8288,941.87609 -7.2264,-10.83505 v -5.74901 h 0.8524 c 0.625,0 1.1459,-0.51145 1.1459,-1.14602 v 0 c 0,-0.62509 -0.5114,-1.14601 -1.1459,-1.14601 h -9.6133 c -0.6251,0 -1.146,0.51144 -1.146,1.14601 v 0 c 0,0.6251 0.5115,1.14602 1.146,1.14602 h 0.8524 v 5.74901 l -7.2265,10.83505 c -0.4263,0.53985 -0.682,1.22178 -0.682,1.96053 0,1.7427 1.4207,3.16338 3.1634,3.16338 h 17.4175 c 1.7427,0 3.1634,-1.41121 3.1634,-3.16338 -0.019,-0.73875 -0.2747,-1.42068 -0.7009,-1.96053 z m -16.7165,-2.47199 -3.9402,5.74902 c -0.4356,-0.2652 -0.7291,-0.7577 -0.7291,-1.32597 0,-0.32202 0.095,-0.6251 0.2652,-0.87135 l 7.5769,-11.34649 v -6.31728 h 4.1105 v 1.1176 h -2.5288 v 1.39226 h 2.5288 v 2.11208 h -2.5288 v 1.39227 h 2.5288 v 2.11207 h -2.5288 v 1.39227 h 2.5288 v 2.11207 h -2.5288 v 1.39227 h 2.5288 v 1.08918 z"
   id="path67929"
   style="stroke-width:0.0947119;fill:url(#linearGradient990);fill-opacity:1" />
</svg>
